<?xml version="1.0" standalone="no"?>
<!DOCTYPE svg PUBLIC "-//W3C//DTD SVG 20010904//EN"
 "http://www.w3.org/TR/2001/REC-SVG-20010904/DTD/svg10.dtd">
<svg version="1.0" xmlns="http://www.w3.org/2000/svg"
 width="1067.000000pt" height="1067.000000pt" viewBox="0 0 1067.000000 1067.000000"
 preserveAspectRatio="xMidYMid meet">
<metadata>
Created by potrace 1.11, written by Peter Selinger 2001-2013
</metadata>
<g transform="translate(0.000000,1067.000000) scale(0.100000,-0.100000)"
fill="#000000" stroke="none">
<path d="M4873 10116 c-106 -34 -186 -116 -267 -276 -89 -175 -152 -275 -220
-347 -58 -63 -59 -65 -31 -60 133 27 206 18 254 -30 l34 -34 -6 -79 c-4 -71
-3 -78 12 -72 93 38 125 146 80 270 -12 31 -21 71 -20 87 2 49 50 116 101 141
95 48 172 40 434 -46 233 -75 276 -84 421 -84 96 0 134 4 192 22 117 36 149
37 230 9 292 -101 431 -365 343 -649 l-18 -58 50 27 c86 47 173 136 214 218
96 194 34 408 -195 672 -76 87 -82 91 -236 130 -59 15 -115 18 -370 18 -208 0
-319 4 -363 13 -90 19 -185 49 -267 84 -38 17 -92 37 -120 44 -63 17 -197 17
-252 0z"/>
<path d="M4245 9400 c-27 -10 -42 -19 -32 -19 20 -1 87 25 87 33 0 4 -1 6 -2
5 -2 0 -25 -9 -53 -19z"/>
<path d="M3948 9283 c7 -3 16 -2 19 1 4 3 -2 6 -13 5 -11 0 -14 -3 -6 -6z"/>
<path d="M3764 9255 c-354 -73 -611 -163 -738 -260 l-32 -24 4 -88 c10 -212
-93 -394 -309 -544 -127 -89 -148 -107 -181 -158 -74 -117 -7 -244 183 -346
132 -71 213 -174 245 -311 19 -84 14 -151 -22 -290 -55 -207 -31 -357 76 -476
l39 -43 -27 55 c-25 51 -27 65 -26 175 0 177 35 292 182 598 l85 179 -12 76
c-12 82 -45 160 -117 283 -58 100 -57 117 7 164 38 27 57 51 77 93 24 53 27
70 32 238 l6 182 38 77 c83 168 268 303 556 406 122 44 100 48 -66 14z"/>
<path d="M4215 9248 c-304 -105 -536 -233 -690 -379 l-76 -72 35 -29 c90 -74
65 -199 -85 -428 -84 -129 -101 -177 -100 -287 0 -198 134 -444 397 -729 46
-51 102 -107 124 -124 l39 -31 -40 60 c-107 160 -132 323 -69 445 28 55 29 61
15 80 -110 149 -140 220 -140 341 0 75 4 98 23 138 31 61 98 128 175 173 34
20 64 38 66 39 2 2 -6 17 -18 33 -39 55 -79 154 -91 222 -20 118 13 227 98
321 77 85 161 138 362 227 32 14 15 14 -25 0z"/>
<path d="M7330 9163 c-50 -8 -220 -64 -284 -93 -97 -43 -196 -110 -265 -179
-102 -102 -106 -97 87 -96 188 0 238 -9 350 -62 229 -108 319 -353 267 -723
-38 -266 -221 -798 -392 -1140 -107 -215 -191 -342 -310 -471 l-43 -46 -68 19
c-47 14 -111 21 -212 25 -161 6 -317 -14 -492 -62 -255 -70 -462 -107 -617
-109 l-95 -1 -20 60 c-15 46 -19 89 -20 185 -1 111 2 133 26 198 53 147 186
314 331 417 66 46 79 78 80 186 0 92 -25 135 -108 182 -88 51 -110 84 -110
168 l0 67 -56 -28 c-77 -39 -166 -61 -253 -61 -96 -1 -161 26 -219 91 -109
122 -211 444 -223 705 l-5 110 35 -134 c59 -226 173 -421 332 -570 l67 -63 16
50 c31 90 84 165 201 283 84 85 148 138 240 199 112 74 125 86 122 109 -6 48
-69 130 -133 171 -89 58 -101 58 -200 6 -46 -24 -102 -49 -124 -56 -22 -7 -44
-16 -49 -21 -5 -4 7 -26 26 -48 49 -58 89 -135 97 -189 l7 -47 32 35 c44 47
84 134 81 173 -4 47 7 59 44 51 51 -11 87 -41 87 -74 0 -31 -10 -40 -167 -165
-45 -36 -122 -103 -171 -149 l-89 -85 -60 35 c-125 75 -273 219 -324 316 -27
53 -25 62 14 54 59 -11 171 -74 235 -131 l62 -57 0 40 c0 66 -16 96 -64 119
-28 14 -54 38 -75 69 -40 61 -46 87 -31 125 17 40 66 71 167 104 94 30 173 79
258 158 l60 56 -35 -6 c-114 -20 -341 -102 -547 -198 -95 -45 -103 -50 -103
-77 0 -16 -5 -28 -12 -28 -18 0 -111 55 -127 74 -20 24 -27 20 -40 -26 -31
-117 -38 -294 -19 -478 39 -382 194 -687 431 -849 l48 -32 60 56 c145 134 282
150 384 45 l39 -40 -100 -102 c-119 -122 -173 -192 -210 -273 -23 -50 -28 -77
-32 -168 -7 -170 19 -324 82 -476 14 -36 26 -68 26 -71 0 -9 -182 0 -192 9 -4
3 -13 49 -21 101 -18 117 -15 306 7 374 l15 49 -74 160 c-141 303 -248 468
-333 511 -93 47 -159 147 -204 311 -18 69 -22 107 -22 275 -1 205 15 332 64
509 25 88 19 103 -57 148 -70 41 -217 66 -269 46 -15 -5 -11 -12 22 -40 l39
-33 -25 -20 c-14 -11 -55 -35 -92 -53 -60 -28 -68 -35 -68 -59 0 -32 28 -65
65 -74 14 -3 25 -10 25 -14 0 -11 -59 -60 -88 -73 -19 -9 -22 -16 -18 -36 25
-113 27 -136 15 -173 -10 -32 -10 -41 3 -55 30 -35 58 -103 58 -142 0 -34 4
-41 23 -45 138 -29 187 -55 187 -102 0 -33 -63 -94 -145 -141 l-67 -38 76 -5
c122 -8 124 -39 6 -95 -33 -16 -60 -31 -59 -34 0 -3 28 -24 62 -46 75 -49 96
-84 72 -121 -9 -14 -33 -33 -53 -41 l-37 -15 133 -64 c225 -107 375 -203 417
-267 15 -24 15 -26 -11 -46 -26 -21 -40 -23 -156 -24 l-58 -1 88 -46 c106 -55
175 -104 192 -136 19 -35 -8 -61 -81 -76 l-59 -12 56 -30 c121 -65 195 -161
208 -268 7 -56 13 -54 -103 -33 -337 59 -661 208 -858 396 -124 117 -227 154
-408 146 -142 -6 -205 -22 -206 -51 0 -11 -2 -28 -3 -36 -2 -8 -6 -49 -10 -90
-20 -232 -126 -484 -299 -715 -78 -104 -280 -304 -387 -385 -47 -34 -89 -67
-95 -73 -18 -16 91 41 187 99 252 153 458 310 669 509 193 183 308 245 459
247 93 0 158 -22 292 -104 179 -108 255 -134 432 -144 97 -5 277 5 371 22 28
5 34 0 77 -58 51 -69 164 -183 155 -156 -49 140 -78 230 -75 233 1 2 50 12
108 23 l105 20 28 -32 28 -31 -16 32 -15 32 37 10 c105 28 457 93 603 110 131
16 214 19 400 17 129 -2 246 -7 260 -13 24 -10 23 -11 -35 -48 -123 -79 -278
-141 -510 -205 l-110 -30 105 4 c179 8 444 80 674 183 114 51 122 51 239 -9
50 -25 57 -26 48 -10 -6 11 -31 40 -56 66 l-45 47 143 68 c237 114 400 168
485 159 40 -3 42 -2 42 22 0 59 52 82 158 69 72 -8 199 -65 277 -124 28 -21
57 -43 65 -49 8 -6 1 7 -16 29 -147 192 -234 387 -234 525 0 54 8 88 41 176
56 149 99 322 101 408 2 62 -3 82 -34 156 -44 103 -62 187 -53 247 7 50 -1 50
108 9 71 -27 143 -34 149 -15 2 7 -15 69 -39 138 -91 271 -86 451 16 545 129
119 229 227 255 275 l29 54 -64 -53 c-152 -127 -282 -135 -353 -21 -82 129
-231 234 -391 276 -55 14 -202 19 -265 8z"/>
<path d="M8737 9053 c-21 -283 -199 -539 -471 -679 -56 -29 -76 -44 -76 -59 0
-11 9 -87 19 -170 11 -82 22 -188 26 -235 4 -47 9 -94 11 -105 3 -11 6 -112 9
-225 6 -297 -10 -382 -108 -553 -42 -75 -52 -101 -52 -139 0 -59 25 -87 120
-134 176 -87 347 -61 522 78 54 42 163 159 163 173 0 2 -30 -10 -67 -27 -51
-24 -81 -32 -128 -32 -73 -1 -103 16 -139 76 -88 150 -46 249 137 325 88 36
179 95 224 144 26 29 93 139 93 153 0 6 -7 0 -16 -12 -35 -51 -171 -89 -243
-70 -55 16 -125 92 -145 157 -35 118 -14 267 67 487 71 190 100 307 116 470
13 128 0 296 -32 396 l-23 73 -7 -92z"/>
<path d="M5607 8852 c-37 -38 -90 -82 -117 -98 -27 -16 -50 -31 -50 -34 0 -3
34 -6 76 -8 41 -1 88 -9 103 -17 l28 -14 6 99 c3 55 11 109 17 120 6 11 9 20
8 20 -2 0 -34 -31 -71 -68z"/>
<path d="M5812 8779 c-1 -46 -12 -88 -38 -148 l-24 -53 28 7 c43 11 164 23
192 19 77 -12 91 -17 114 -45 30 -35 32 -56 11 -127 -22 -72 -112 -167 -202
-215 -76 -39 -173 -71 -267 -88 l-64 -11 10 -41 c5 -23 7 -73 4 -112 -4 -57
-3 -66 7 -50 7 11 39 47 72 80 57 57 133 106 364 233 153 85 240 198 256 332
7 63 -6 113 -19 72 -4 -11 -19 -25 -34 -30 -60 -20 -160 25 -311 139 -51 38
-94 69 -95 69 -2 0 -3 -14 -4 -31z"/>
<path d="M6782 8381 c-40 -32 -118 -84 -173 -117 -69 -41 -98 -64 -94 -74 2
-8 22 -67 44 -131 171 -496 94 -931 -225 -1269 -72 -75 -176 -159 -268 -214
-69 -41 -60 -44 44 -15 183 50 296 131 354 253 54 115 116 155 220 144 l44 -5
-24 35 c-59 87 0 195 171 308 l55 37 -50 17 c-63 21 -110 64 -110 100 0 32 39
94 83 133 45 39 163 119 234 159 l60 33 -81 -3 c-108 -5 -160 10 -209 59 -36
36 -39 43 -34 80 9 70 65 147 222 306 83 83 146 149 140 145 -5 -3 -71 -46
-145 -94 -195 -128 -237 -129 -227 -8 3 36 15 91 26 123 11 31 19 57 18 56 -1
0 -35 -26 -75 -58z"/>
<path d="M2263 8341 c-371 -287 -623 -586 -640 -758 l-5 -48 25 41 c40 68 70
104 103 125 143 88 273 -130 388 -651 117 -529 174 -746 248 -950 69 -191 160
-343 212 -356 27 -6 63 10 151 69 211 143 325 351 325 594 0 40 -3 73 -7 73
-5 0 -25 -33 -46 -74 -21 -41 -61 -97 -88 -125 -126 -128 -252 -73 -367 161
-122 245 -188 558 -199 933 -5 171 -2 228 17 395 30 250 34 526 8 583 -23 50
-47 48 -125 -12z"/>
<path d="M6246 8035 c-82 -157 -261 -283 -460 -325 l-56 -11 26 -51 c84 -166
67 -402 -50 -683 l-17 -40 23 29 c44 55 128 199 149 255 13 36 18 66 14 86
-19 91 -19 89 23 126 22 18 73 55 114 81 179 114 285 267 296 425 4 68 -11
163 -27 163 -3 0 -19 -25 -35 -55z"/>
<path d="M7040 6106 c0 -2 8 -10 18 -17 15 -13 16 -12 3 4 -13 16 -21 21 -21
13z"/>
<path d="M7920 6070 c-19 -4 -163 -10 -320 -13 -330 -6 -348 -9 -455 -88 -114
-84 -270 -153 -405 -179 -145 -28 -286 -70 -387 -114 -339 -149 -743 -163
-915 -32 -146 112 -340 155 -494 110 -75 -22 -212 -22 -318 1 -73 15 -135 36
-331 110 -188 71 -378 105 -491 87 -56 -10 -70 -18 -174 -101 -147 -118 -261
-194 -390 -259 -116 -59 -121 -58 100 -15 117 23 175 40 360 108 82 30 209 41
286 23 38 -8 44 -14 73 -73 18 -36 48 -78 69 -95 42 -35 116 -60 176 -60 48 0
112 -28 143 -61 40 -44 55 -97 59 -215 6 -177 66 -371 176 -572 53 -96 124
-192 143 -192 19 0 19 6 -5 82 -26 81 -25 114 3 168 62 125 299 142 464 33 28
-18 53 -40 56 -47 8 -20 162 -118 245 -155 153 -69 335 -121 423 -121 l49 0 0
55 c0 60 15 97 52 132 l23 22 80 -50 c118 -74 244 -141 256 -137 5 2 -10 25
-35 52 -24 27 -47 60 -51 73 -15 63 64 119 210 148 451 91 584 144 740 300 77
77 251 318 304 423 32 63 38 132 15 171 -19 33 -85 71 -122 71 -67 0 22 43
127 61 79 14 214 -2 319 -37 40 -13 75 -24 78 -24 11 0 -42 66 -118 147 -43
45 -78 91 -78 102 0 34 20 74 61 124 22 26 39 47 37 46 -2 -1 -19 -5 -38 -9z"/>
<path d="M1334 5090 c-244 -20 -459 -60 -709 -132 -167 -48 -194 -61 -105 -51
121 15 427 8 530 -10 366 -67 761 -251 1125 -525 222 -168 555 -481 762 -717
58 -66 112 -127 120 -135 8 -8 0 16 -17 54 -144 318 -158 532 -38 586 24 11
57 20 74 20 98 0 332 -96 539 -222 98 -61 335 -218 335 -224 0 -1 -105 -54
-232 -117 -682 -337 -1331 -792 -1809 -1267 -237 -236 -384 -425 -470 -604
-49 -102 -88 -276 -61 -276 4 0 24 31 44 69 163 301 576 660 1119 971 238 136
709 361 929 444 42 16 46 20 62 75 34 116 139 243 283 346 119 85 363 197 388
177 142 -110 290 -229 319 -254 l37 -33 -13 -75 c-28 -160 -14 -386 34 -560
12 -41 44 -122 72 -180 48 -99 58 -113 195 -251 l144 -146 -32 -54 c-158 -267
-351 -653 -369 -739 -22 -101 -8 -245 35 -379 l37 -113 -51 -118 c-62 -144
-76 -226 -67 -390 4 -63 8 -124 10 -135 2 -11 7 -44 11 -73 l7 -52 72 0 73 0
-15 63 c-8 38 -14 119 -14 212 -1 123 3 164 21 230 12 43 25 83 29 87 5 5 34
-36 66 -89 71 -119 190 -287 289 -408 l73 -90 156 -3 157 -3 52 63 c93 111
229 300 302 420 40 64 75 114 79 110 15 -15 47 -162 53 -249 7 -85 -5 -236
-25 -311 l-8 -32 73 0 73 0 7 53 c4 28 9 61 12 72 9 43 11 283 2 343 -5 37
-30 113 -60 182 l-51 118 30 93 c38 116 52 192 52 285 0 109 -17 163 -106 344
-76 155 -274 520 -297 548 -7 9 25 49 135 160 137 139 148 153 196 252 89 183
130 394 119 614 -4 67 -11 139 -18 160 -11 39 -10 39 33 77 23 21 107 89 186
150 l143 111 102 -41 c286 -115 511 -317 558 -500 l12 -47 211 -89 c417 -176
894 -433 1172 -632 346 -248 591 -494 717 -723 39 -70 42 -73 45 -44 5 53 -26
176 -68 262 -84 175 -222 354 -455 588 -411 412 -966 820 -1567 1150 -132 73
-461 234 -478 234 -25 0 -4 21 78 77 263 182 531 326 677 363 226 59 310 -54
241 -321 -23 -89 -76 -230 -112 -302 -19 -38 -26 -45 123 123 221 248 508 519
733 691 379 290 761 472 1145 546 98 18 428 25 540 10 90 -11 52 5 -130 56
-207 58 -225 62 -402 91 -201 33 -311 41 -548 40 -513 -2 -976 -119 -1480
-374 -374 -189 -690 -409 -1050 -731 l-147 -132 -117 36 c-161 50 -297 83
-426 103 -103 16 -204 18 -510 10 -33 0 -110 3 -170 7 -207 15 -453 -23 -767
-120 l-116 -36 -139 124 c-247 222 -424 359 -658 511 -522 339 -1062 538
-1610 593 -103 10 -425 13 -531 5z m4195 -1394 c149 -75 260 -213 315 -392 5
-16 -11 -42 -70 -115 -93 -114 -285 -368 -378 -501 -37 -54 -69 -98 -71 -98
-2 0 -34 44 -71 97 -98 140 -264 362 -358 478 -45 55 -85 105 -89 112 -9 15
31 125 68 189 54 92 172 198 270 244 45 20 109 27 217 24 88 -3 104 -7 167
-38z m-818 -76 c-27 -39 -54 -84 -61 -100 -7 -17 -16 -30 -20 -30 -15 0 -140
144 -132 151 7 8 200 46 239 48 20 1 17 -6 -26 -69z m1315 50 c65 -11 122 -24
126 -28 8 -8 -117 -152 -132 -152 -4 0 -13 13 -20 30 -7 16 -34 61 -61 100
-26 38 -44 70 -39 70 4 0 61 -9 126 -20z m-1021 -875 c57 -66 137 -163 178
-216 l75 -96 -38 -59 c-21 -33 -60 -94 -87 -137 l-49 -78 -64 71 c-67 76 -92
127 -155 315 -41 125 -72 266 -80 370 l-6 80 61 -65 c34 -36 108 -119 165
-185z m855 117 c-16 -125 -62 -291 -120 -438 -45 -114 -58 -137 -113 -197
l-62 -67 -82 131 c-46 72 -83 136 -83 143 0 17 188 250 336 416 145 162 144
162 124 12z m-497 -579 c19 -27 57 -84 84 -128 l51 -81 -83 -108 c-45 -59 -86
-108 -90 -108 -4 0 -45 49 -90 108 l-83 108 51 81 c68 108 115 175 123 175 1
0 18 -21 37 -47z m-235 -450 c107 -141 106 -111 8 -261 -85 -131 -186 -300
-290 -487 l-56 -100 0 56 c0 119 54 354 127 548 38 103 138 321 147 321 3 0
32 -35 64 -77z m497 6 c124 -244 219 -558 231 -759 6 -106 4 -106 -51 1 -53
103 -198 347 -291 490 -85 131 -85 131 -68 158 23 35 136 181 140 181 2 0 20
-32 39 -71z m-242 -373 c148 -226 407 -674 407 -702 0 -27 -87 -188 -167 -309
-69 -105 -178 -246 -270 -352 l-28 -33 -46 53 c-72 82 -189 235 -251 327 -66
100 -168 289 -168 314 0 37 443 786 465 786 2 0 28 -38 58 -84z"/>
<path d="M215 4826 c-64 -25 -165 -74 -165 -80 0 -3 128 50 225 94 41 18 -2 8
-60 -14z"/>
<path d="M10390 4837 c8 -8 210 -95 210 -90 0 5 -156 78 -190 88 -14 4 -23 5
-20 2z"/>
</g>
</svg>
